<svg xmlns="http://www.w3.org/2000/svg" width="1310.65" height="287.97">
  <path d="M154.66 0C154.3 0 .29 57.78.08 58c-.08.07-.1 39.03-.06 86.57L.1 231l19.2-7.51c10.56-4.13 22.34-8.74 26.16-10.25l6.96-2.73v-70.36c0-48.53.1-70.42.34-70.56.58-.36 101.56-24.42 101.82-24.27.32.2.32 206.75 0 206.94-.13.08-34.58-4.59-76.56-10.37C36.05 236.1 1.6 231.4 1.48 231.44c-.13.05 34.07 12.77 76 28.29 41.92 15.51 76.58 28.22 77.02 28.24.44.01 19.92-5.26 43.28-11.72l42.48-11.75-.08-119.97-.08-119.97-42.56-12.28C174.14 5.53 154.84 0 154.66 0zm409.28 45.31c-7.69 0-12.5 1.02-18.27 3.86-8.89 4.38-15.87 12.62-19.02 22.43-1.85 5.8-1.97 7.05-2.13 21.92l-.15 13.68H503.3v16.64h21.12v106.88h19.52V123.84h48.32v106.88h19.52V123.84h29.12V107.2h-29.12V96.56c.02-14.87.59-19.26 3.25-24.83 2.37-4.94 6.8-8.34 12.43-9.53 4.93-1.03 12.26-.18 16.65 1.93l1.6.77V47.12l-1.85-.5c-3.45-.97-6.64-1.31-12.08-1.3-7.69 0-12.5 1-18.27 3.85-8.89 4.38-15.87 12.62-19.02 22.43-1.85 5.8-1.97 7.05-2.13 21.92l-.15 13.68H543.94V96.56c.02-14.87.59-19.26 3.25-24.83 2.37-4.94 6.8-8.34 12.43-9.53 4.93-1.03 12.26-.18 16.65 1.93l1.6.77V47.12l-1.85-.5c-3.45-.97-6.64-1.31-12.08-1.3zm105.12 5c-4.8.15-8.85 2.68-11 6.98-2.5 5-1.57 11.18 2.24 14.88a13.47 13.47 0 0 0 6.22 3.32c10.54 2.07 18.74-7.4 15.03-17.33-1.48-3.94-5.96-7.3-10.39-7.77-.7-.08-1.41-.1-2.1-.08zm339.78 4.5c-1.51.02-3.05.08-4.62.18-11.77.76-19.74 2.72-28.84 7.1-2.5 1.2-4.63 2.38-4.72 2.61-.1.24-.13 4.55-.08 9.59l.08 9.16 3.52-2.36c9.34-6.26 18.41-9.27 29.01-9.63 19.52-.67 30.99 6.72 33.68 21.72 1.92 10.68-.1 20.61-5.56 27.36-4.27 5.27-11.22 8.99-20.19 10.8-5.96 1.2-9.66 1.46-20.17 1.46h-9.57v16.57l12.4.15c10.5.13 13.06.26 16.67.83 9.62 1.5 16.97 4.24 22.15 8.22a34.33 34.33 0 0 1 7 7.65c4.72 7.88 5.56 20.8 1.92 29.88-3.25 8.14-11.1 15.06-20.54 18.11-8.99 2.9-20.78 3.26-31.23.95-8.83-1.96-16.66-5.58-24.93-11.53l-.73-.51.09 10.68.08 10.68 4.16 2.09c7.62 3.82 15.96 5.91 26.86 6.72 4.9.36 14.93.11 19.54-.5 8.14-1.06 14.89-3.01 21.11-6.11 10.69-5.33 18.81-13.29 23.34-22.87 3.48-7.36 4.9-14.71 4.58-23.78-.23-6.85-1.28-11.23-3.93-16.51-6.12-12.2-18.39-20.4-33.98-22.75-1.46-.22-2.64-.5-2.64-.63 0-.12 1.55-.75 3.44-1.4a71.43 71.43 0 0 0 11.76-5.38 50.07 50.07 0 0 0 8.63-7.03c5.3-5.8 8.66-13.1 9.92-21.53.64-4.2.64-12.97.01-16.57-2.1-12.07-9.46-21.83-20.9-27.7-7.68-3.95-16.76-5.85-27.33-5.72zm-596.86 0a99.13 99.13 0 0 0-23.4 2.53 77.65 77.65 0 0 0-32.35 16.07C341.6 85.7 331.75 105.02 328.45 128c-1.81 12.68-1.45 28.7.93 40.5 3.84 19 13.43 36.06 26.38 46.92a78.32 78.32 0 0 0 29.55 15.28 99.59 99.59 0 0 0 15.27 2.56c4.8.39 14.8.15 19.8-.47 23.6-2.93 42.82-14.57 55.16-33.43a109.01 109.01 0 0 0 8.4-16.75 119.23 119.23 0 0 0 5.82-24.53c.47-3.48.58-6.54.58-15.68 0-12.22-.25-15.28-1.97-23.5-6.81-32.67-28.54-55.65-58.83-62.24a87.45 87.45 0 0 0-17.56-1.84zm744.12.1c-7.8-.03-10.99.33-17.12 1.9-11.77 3.01-22.38 9.71-30.68 19.37-9.43 10.97-16.27 25.47-20.16 42.7-4.45 19.74-4.85 46.15-.98 64.5 1.73 8.22 3.85 14.43 7.2 21.1 8.6 17.2 22.03 26.94 39.68 28.8 3.96.41 11.74.11 16.02-.62a52.87 52.87 0 0 0 25.3-11.96c8.24-7.1 14.87-18.77 17.4-30.62 1.84-8.65 1.88-19.54.11-28.74-2.94-15.26-12.47-28.12-25.44-34.31-13.64-6.52-33.2-6.24-44.95.66-6.5 3.81-11.2 8.68-15.3 15.83a27.45 27.45 0 0 0-1.64 3.1c0 .14-.14.26-.32.26-.7 0-.23-11.02.82-18.88 3.8-28.51 17.8-49.37 36.81-54.88 5.12-1.48 8.32-1.84 14.7-1.65 8.46.25 15.98 1.99 23.13 5.34a52 52 0 0 0 2.83 1.27c.06 0 .11-4.17.11-9.25v-9.26l-2.2-.83c-6.58-2.52-15-3.8-25.32-3.83zm106.72 2.69c-21.9 0-39.85.04-39.86.08-.1.43-5.93 86.51-5.86 86.6.05.07 1.65-.04 3.55-.24 11.2-1.16 31.48-1.29 37.53-.23 11.74 2.06 19.86 6.32 25.41 13.34 4.72 5.97 6.91 13 6.91 22.18 0 13.82-5.89 24.63-17.14 31.46-11.96 7.25-30.05 7.84-46.13 1.5a69.98 69.98 0 0 1-12.49-6.27l-1.04-.63v21.06l3.12 1.47a48.9 48.9 0 0 0 11.28 3.7c3.2.7 10.47 1.59 14.24 1.76 17.74.78 30.68-1.69 41.83-7.97 12.27-6.92 21.24-18.38 24.53-31.33 3.04-11.95 2.47-26.93-1.39-36.97-6.23-16.21-20.23-26.76-39.85-30.04-6.9-1.15-12.01-1.38-21.86-.97-4.9.2-8.96.3-9.04.22-.13-.13 2.8-44.3 3.24-48.8l.2-2h62.66V57.6zM409.27 72.95c4.89-.04 9.89.4 14.51 1.33 22.1 4.41 37.84 21.26 43.36 46.4 3.36 15.36 3.18 34.85-.46 49.03-6.85 26.63-24.48 42.43-50.58 45.32-3.92.44-12.45.35-16.16-.15-28.78-3.97-48.11-27.08-51.21-61.24-.5-5.51-.23-18.16.48-22.76 2.12-13.57 6.3-24.36 13.29-34.32 2.67-3.8 9.23-10.36 13.12-13.11a60.1 60.1 0 0 1 19.8-8.93c4.18-1 8.96-1.53 13.85-1.57zm355.21 31.45c-2.05-.03-4.12.04-6.2.19-13.2.94-22.62 3.96-31.97 10.24-14.8 9.95-24.08 26.22-26.4 46.33-.72 6.26-.49 18.6.45 23.8 2.43 13.38 8.3 24.73 17.14 33.18 9.56 9.13 20.37 13.73 35.88 15.27 2.44.24 12.17-.14 15.46-.61a59.66 59.66 0 0 0 19.34-5.98l3.76-1.91V206.1l-3.17 2.07a53.47 53.47 0 0 1-17.79 7.57c-4.27.92-12.11 1.13-16.77.44-8.67-1.28-15.53-4.55-21.43-10.24-8.02-7.72-12.17-17.48-13.17-31-.79-10.55 1.25-22.27 5.24-30.2 3.08-6.1 9.22-13.27 14.3-16.65 7.44-4.97 15.37-7.07 25.27-6.7a48.12 48.12 0 0 1 24.59 7.51c1.46.91 2.72 1.66 2.8 1.66.07 0 .13-4.52.13-10.04v-10.05l-2.64-1.12c-7.38-3.16-15.93-4.85-24.82-4.95zm97.58 0a53.32 53.32 0 0 0-34.8 13.32c-10.93 9.47-18.76 25.58-20.58 42.35-.5 4.67-.42 16.34.16 21.37 1.86 15.98 7.24 28.25 16.45 37.45a44.81 44.81 0 0 0 17.8 11.28c5.09 1.77 8.67 2.48 16.3 3.24 2.58.26 13.6-.14 17.46-.63 10.98-1.4 20.8-4.78 28.21-9.74l2.16-1.44v-18.36l-4.08 2.75c-10.6 7.16-21.83 10.65-34.27 10.65-11.77 0-21.1-3.3-28-9.9-7.4-7.08-11.14-16.32-12.22-30.18l-.22-2.8h87.53l-.2-9.2c-.1-5.24-.4-10.92-.7-13.2-1.84-14.63-6.65-25.43-15.02-33.77-8.1-8.07-17.17-11.96-30.33-13-1.9-.15-3.79-.21-5.65-.19zm-202.6 2.8v123.52h19.52V107.2h-9.76zm203.08 14.13c.65 0 1.3.02 1.97.05 8.1.34 13.71 2.5 18.7 7.2 6.19 5.84 9.43 13.9 10.35 25.74l.22 2.8H826.79l.21-1.2c1.63-9.45 5.63-17.82 11.46-23.98 6.85-7.25 14.4-10.59 24.08-10.6zm278.04 17.75c5.6 0 6.34.07 9.28.86 5.6 1.5 9.2 3.52 13.24 7.4 4.05 3.89 6.71 8.3 8.64 14.34 1.49 4.64 2 8.09 2.2 14.48.18 6.47-.3 10.88-1.71 15.76-3.54 12.24-11.88 20.83-23.1 23.8-2.84.76-10.88 1.1-13.8.58a39.7 39.7 0 0 1-9.55-3.38c-7.32-4.08-13.94-12.55-17-21.76-1.75-5.22-2.31-8.7-2.5-15.32-.18-6.86.23-9.72 2.13-14.92 3.07-8.4 10.72-16.3 19-19.6 4.84-1.94 6.59-2.24 13.17-2.24z" style="fill:#eb3c00;fill-opacity:1;stroke-width:.31999999"/>
</svg>
